<svg width="40" height="40" viewBox="0 0 40 40" fill="none" xmlns="http://www.w3.org/2000/svg">
    <circle cx="20" cy="20" r="20" fill="#007862"/>
    <rect x="11" y="9" width="18.5714" height="22.8571" rx="3.78082" fill="white"/>
    <path d="M20.2854 15.8715V17.9237M20.2854 17.9237H16.299C15.7979 17.9237 15.3916 18.33 15.3916 18.8311V19.1077M20.2854 17.9237H24.114C24.6151 17.9237 25.0214 18.33 25.0214 18.8311V19.1077" stroke="#97ACDA" stroke-width="1.13425"/>
    <path d="M20.2854 25.7143L20.2854 23.3701M20.2854 23.3701L16.299 23.3701C15.7979 23.3701 15.3916 22.9639 15.3916 22.4627L15.3916 22.1861M20.2854 23.3701L24.114 23.3701C24.6151 23.3701 25.0214 22.9639 25.0214 22.4627L25.0214 22.1861" stroke="#97ACDA" stroke-width="1.13425"/>
    <path d="M12.3926 20.6074C12.3926 19.7356 13.0994 19.0288 13.9712 19.0288H17.1285C18.0004 19.0288 18.7072 19.7356 18.7072 20.6074C18.7072 21.4793 18.0004 22.1861 17.1285 22.1861H13.9712C13.0994 22.1861 12.3926 21.4793 12.3926 20.6074Z" fill="#FFB629"/>
    <path d="M21.8638 20.6074C21.8638 19.7356 22.5705 19.0288 23.4424 19.0288H26.5997C27.4716 19.0288 28.1784 19.7356 28.1784 20.6074C28.1784 21.4793 27.4716 22.1861 26.5997 22.1861H23.4424C22.5705 22.1861 21.8638 21.4793 21.8638 20.6074Z" fill="#FFB629"/>
    <path d="M17.1284 27.2929C17.1284 26.421 17.8352 25.7143 18.7071 25.7143H21.8644C22.7362 25.7143 23.443 26.421 23.443 27.2929C23.443 28.1648 22.7362 28.8715 21.8644 28.8715H18.7071C17.8352 28.8715 17.1284 28.1648 17.1284 27.2929Z" fill="#0099FF"/>
    <rect x="17.1284" y="12.7143" width="6.31461" height="3.1573" rx="1.57865" fill="#FF6100"/>
</svg>