<svg viewBox="0 0 40 40" width="40" height="40" fill="none" xmlns="http://www.w3.org/2000/svg"><circle cx="20" cy="20" r="20" fill="#09F"></circle><rect x="6.299" y="14.441" width="14.403" height="10.832" rx="2.089" fill="#fff" stroke="#B1C3E9" stroke-width="0.597"></rect><rect x="18.441" y="14.441" width="14.403" height="10.832" rx="2.089" fill="#fff" stroke="#B1C3E9" stroke-width="0.597"></rect><rect x="8.143" y="19.143" width="9.286" height="2.143" rx="1.071" fill="#09F"></rect><rect x="21.714" y="19.143" width="9.286" height="2.143" rx="1.071" fill="#FFB629"></rect><rect x="11.298" y="12.299" width="16.546" height="15.117" rx="2.089" fill="#fff" stroke="#B1C3E9" stroke-width="0.597"></rect><path d="M14.117 17.945c0-.626.507-1.133 1.132-1.133h8.303a1.132 1.132 0 010 2.265H15.25a1.132 1.132 0 01-1.132-1.132zM14.117 21.719c0-.626.507-1.132 1.132-1.132h8.303a1.132 1.132 0 110 2.264H15.25a1.132 1.132 0 01-1.132-1.132z" fill="#FF6100"></path></svg>