<svg width="118" height="86" viewBox="0 0 118 86" fill="none" xmlns="http://www.w3.org/2000/svg">
<rect width="118" height="61" rx="4" fill="white"/>
<path d="M0 57C0 59.2091 1.79086 61 4 61H114C116.209 61 118 59.2091 118 57V47H0V57Z" fill="#65DAA0"/>
<rect x="6.08398" y="24.6699" width="105.416" height="9.69941" rx="1.8" fill="#DADEF3"/>
<path d="M10.2699 15H6.76594V9.328H10.2699V10.224H7.72594V11.728H10.0299V12.6H7.72594V14.104H10.2699V15ZM12.1841 15H11.2641V11.104H12.1521V11.6C12.3761 11.2 12.8641 10.992 13.3041 10.992C13.8161 10.992 14.2641 11.224 14.4721 11.68C14.7761 11.168 15.2321 10.992 15.7361 10.992C16.4401 10.992 17.1121 11.44 17.1121 12.472V15H16.2161V12.624C16.2161 12.168 15.9841 11.824 15.4641 11.824C14.9761 11.824 14.6561 12.208 14.6561 12.688V15H13.7441V12.624C13.7441 12.176 13.5201 11.824 12.9921 11.824C12.4961 11.824 12.1841 12.192 12.1841 12.688V15ZM18.0084 13.944C18.0084 13.248 18.5204 12.864 19.1844 12.768L20.1844 12.616C20.4084 12.584 20.4724 12.472 20.4724 12.336C20.4724 12.008 20.2484 11.744 19.7364 11.744C19.2484 11.744 18.9764 12.056 18.9364 12.448L18.0884 12.256C18.1604 11.584 18.7684 10.984 19.7284 10.984C20.9284 10.984 21.3844 11.664 21.3844 12.44V14.376C21.3844 14.728 21.4244 14.96 21.4324 15H20.5684C20.5604 14.976 20.5284 14.816 20.5284 14.504C20.3444 14.8 19.9604 15.12 19.3284 15.12C18.5124 15.12 18.0084 14.56 18.0084 13.944ZM19.5044 14.392C20.0244 14.392 20.4724 14.144 20.4724 13.384V13.208L19.4564 13.36C19.1684 13.408 18.9364 13.568 18.9364 13.888C18.9364 14.152 19.1364 14.392 19.5044 14.392ZM23.4263 15H22.5063V11.104H23.4263V15ZM22.3623 9.736C22.3623 9.4 22.6343 9.128 22.9622 9.128C23.2983 9.128 23.5703 9.4 23.5703 9.736C23.5703 10.072 23.2983 10.336 22.9622 10.336C22.6343 10.336 22.3623 10.072 22.3623 9.736ZM25.5514 15H24.6234V9.208H25.5514V15Z" fill="#343C6A"/>
<line x1="10" y1="82.5" x2="107" y2="82.5" stroke="#0099FF"/>
<circle cx="10.5" cy="82.5" r="3.5" fill="#0099FF"/>
<circle cx="57.5" cy="82.5" r="3.5" fill="#0099FF"/>
<circle cx="57.5" cy="82.5" r="2.5" fill="#65DAA0"/>
<circle cx="104.5" cy="82.5" r="3.5" fill="#0099FF"/>
<path fill-rule="evenodd" clip-rule="evenodd" d="M108.288 52.2048C108.148 52.068 107.92 52.068 107.78 52.2048C107.639 52.3416 107.639 52.5635 107.78 52.7003L108.964 53.854H104.798C104.599 53.854 104.438 54.0109 104.438 54.2044C104.438 54.3979 104.599 54.5547 104.798 54.5547H108.964L107.78 55.7084C107.639 55.8452 107.639 56.0671 107.78 56.2039C107.92 56.3407 108.148 56.3407 108.288 56.2039L110.086 54.4521C110.227 54.3153 110.227 54.0934 110.086 53.9566L108.288 52.2048Z" fill="white"/>
<path fill-rule="evenodd" clip-rule="evenodd" d="M7.8501 52.7003C7.99053 52.5635 7.99053 52.3416 7.8501 52.2048C7.70967 52.068 7.482 52.068 7.34157 52.2048L5.54365 53.9566C5.40323 54.0934 5.40323 54.3153 5.54365 54.4521L7.34157 56.2039C7.482 56.3407 7.70967 56.3407 7.8501 56.2039C7.99053 56.0671 7.99053 55.8452 7.8501 55.7084L6.66603 54.5547H10.8321C11.0307 54.5547 11.1917 54.3979 11.1917 54.2044C11.1917 54.0109 11.0307 53.854 10.8321 53.854H6.66603L7.8501 52.7003Z" fill="white"/>
</svg>
