<svg width="118" height="121" viewBox="0 0 118 121" fill="none" xmlns="http://www.w3.org/2000/svg">
<path d="M0 4.86823C0 2.17958 2.17958 0 4.86823 0H113.132C115.82 0 118 2.17958 118 4.86823V121H0V4.86823Z" fill="#F9F9FF"/>
<rect x="6.08398" y="16.6699" width="50.2024" height="9.69941" rx="1.8" fill="#E3E5F5"/>
<rect x="6.08398" y="43.6699" width="105.416" height="9.69941" rx="1.8" fill="#E3E5F5"/>
<rect x="6.08398" y="70.6689" width="105.416" height="9.69941" rx="1.8" fill="#E3E5F5"/>
<rect x="6.08398" y="86" width="105.416" height="9.69941" rx="1.8" fill="#E3E5F5"/>
<rect x="69" y="102" width="43" height="11" rx="1.8" fill="#64B200"/>
<path d="M83.9198 106.696L83.2626 106.903C83.22 106.635 82.9949 106.239 82.4168 106.239C81.9786 106.239 81.6744 106.531 81.6744 106.86C81.6744 107.134 81.8447 107.341 82.1794 107.414L82.8001 107.542C83.5608 107.694 83.9685 108.174 83.9685 108.783C83.9685 109.452 83.4269 110.091 82.4411 110.091C81.3457 110.091 80.8407 109.385 80.7737 108.765L81.4553 108.57C81.4979 109.02 81.8204 109.434 82.4411 109.434C82.9583 109.434 83.2261 109.172 83.2261 108.838C83.2261 108.558 83.0192 108.333 82.648 108.254L82.0395 108.126C81.3823 107.992 80.9441 107.56 80.9441 106.915C80.9441 106.191 81.6074 105.594 82.4107 105.594C83.4269 105.594 83.8225 106.215 83.9198 106.696ZM86.4882 109.671C86.3421 109.939 85.9952 110.085 85.6484 110.085C84.9425 110.085 84.5287 109.562 84.5287 108.905V107.036H85.2346V108.777C85.2346 109.142 85.405 109.452 85.8309 109.452C86.2387 109.452 86.4516 109.178 86.4516 108.789V107.036H87.1575V109.458C87.1575 109.702 87.1758 109.89 87.188 110H86.5125C86.5003 109.933 86.4882 109.793 86.4882 109.671ZM88.7589 110H88.0712V105.594H88.765V107.402C88.8988 107.17 89.2396 106.957 89.696 106.957C90.5845 106.957 91.0652 107.633 91.0652 108.503C91.0652 109.398 90.5358 110.073 89.6717 110.073C89.2518 110.073 88.9293 109.89 88.7589 109.604V110ZM90.3532 108.509C90.3532 107.919 90.0246 107.584 89.556 107.584C89.1057 107.584 88.7589 107.919 88.7589 108.509C88.7589 109.093 89.1057 109.446 89.556 109.446C90.0185 109.446 90.3532 109.093 90.3532 108.509ZM92.4436 110H91.7438V107.036H92.4193V107.414C92.5897 107.109 92.9609 106.951 93.2955 106.951C93.685 106.951 94.0258 107.128 94.184 107.475C94.4152 107.085 94.7621 106.951 95.1455 106.951C95.681 106.951 96.1921 107.292 96.1921 108.077V110H95.5106V108.193C95.5106 107.846 95.3341 107.584 94.9386 107.584C94.5674 107.584 94.324 107.876 94.324 108.241V110H93.6302V108.193C93.6302 107.852 93.4599 107.584 93.0582 107.584C92.6809 107.584 92.4436 107.864 92.4436 108.241V110ZM97.7564 110H97.0565V107.036H97.7564V110ZM96.947 105.996C96.947 105.74 97.1539 105.533 97.4034 105.533C97.659 105.533 97.8659 105.74 97.8659 105.996C97.8659 106.251 97.659 106.452 97.4034 106.452C97.1539 106.452 96.947 106.251 96.947 105.996ZM99.5615 106.13V107.036H100.176V107.663H99.5615V109.039C99.5615 109.3 99.6772 109.41 99.9388 109.41C100.036 109.41 100.152 109.391 100.182 109.385V109.97C100.14 109.988 100.006 110.037 99.7502 110.037C99.2025 110.037 98.8617 109.708 98.8617 109.154V107.663H98.3141V107.036H98.4662C98.7826 107.036 98.9226 106.836 98.9226 106.574V106.13H99.5615Z" fill="white"/>
<path d="M9.26855 40H6.60319V35.6855H9.26855V36.3671H7.33342V37.5111H9.08599V38.1744H7.33342V39.3184H9.26855V40ZM10.7245 40H10.0247V37.0365H10.7002V37.4138C10.8706 37.1095 11.2418 36.9513 11.5765 36.9513C11.9659 36.9513 12.3067 37.1277 12.4649 37.4746C12.6962 37.0851 13.043 36.9513 13.4264 36.9513C13.9619 36.9513 14.4731 37.292 14.4731 38.077V40H13.7915V38.1927C13.7915 37.8458 13.6151 37.5841 13.2195 37.5841C12.8483 37.5841 12.6049 37.8762 12.6049 38.2414V40H11.9112V38.1927C11.9112 37.8519 11.7408 37.5841 11.3392 37.5841C10.9619 37.5841 10.7245 37.8641 10.7245 38.2414V40ZM15.1549 39.1967C15.1549 38.6673 15.5444 38.3752 16.0495 38.3022L16.8101 38.1866C16.9805 38.1622 17.0292 38.077 17.0292 37.9736C17.0292 37.7241 16.8588 37.5233 16.4693 37.5233C16.0981 37.5233 15.8912 37.7606 15.8608 38.0588L15.2158 37.9127C15.2705 37.4016 15.733 36.9452 16.4633 36.9452C17.3761 36.9452 17.7229 37.4624 17.7229 38.0527V39.5253C17.7229 39.7931 17.7533 39.9696 17.7594 40H17.1022C17.0961 39.9817 17.0718 39.86 17.0718 39.6227C16.9318 39.8479 16.6397 40.0913 16.159 40.0913C15.5383 40.0913 15.1549 39.6653 15.1549 39.1967ZM16.2929 39.5375C16.6884 39.5375 17.0292 39.3489 17.0292 38.7708V38.6369L16.2564 38.7525C16.0373 38.789 15.8608 38.9107 15.8608 39.1541C15.8608 39.355 16.013 39.5375 16.2929 39.5375ZM19.276 40H18.5762V37.0365H19.276V40ZM18.4667 35.9959C18.4667 35.7403 18.6736 35.5334 18.9231 35.5334C19.1787 35.5334 19.3856 35.7403 19.3856 35.9959C19.3856 36.2515 19.1787 36.4523 18.9231 36.4523C18.6736 36.4523 18.4667 36.2515 18.4667 35.9959ZM20.8926 40H20.1867V35.5942H20.8926V40Z" fill="#343C6A"/>
<path d="M7.33342 13H6.60319V8.68553H9.2868V9.37317H7.33342V10.5841H9.08599V11.2596H7.33342V13ZM11.6032 12.6714C11.4571 12.9391 11.1103 13.0852 10.7634 13.0852C10.0575 13.0852 9.64369 12.5619 9.64369 11.9046V10.0365H10.3496V11.7769C10.3496 12.142 10.52 12.4523 10.9459 12.4523C11.3537 12.4523 11.5666 12.1785 11.5666 11.789V10.0365H12.2725V12.4584C12.2725 12.7018 12.2908 12.8905 12.303 13H11.6275C11.6153 12.9331 11.6032 12.7931 11.6032 12.6714ZM13.8921 13H13.1862V8.59425H13.8921V13ZM15.5085 13H14.8026V8.59425H15.5085V13ZM21.6101 13H20.8494L18.7196 9.7322V13H17.9893V8.68553H18.9204L20.8799 11.7464V8.68553H21.6101V13ZM22.3812 12.1967C22.3812 11.6673 22.7707 11.3752 23.2757 11.3022L24.0364 11.1866C24.2068 11.1622 24.2555 11.077 24.2555 10.9736C24.2555 10.7241 24.0851 10.5233 23.6956 10.5233C23.3244 10.5233 23.1175 10.7606 23.0871 11.0588L22.4421 10.9127C22.4968 10.4016 22.9593 9.94518 23.6895 9.94518C24.6023 9.94518 24.9492 10.4624 24.9492 11.0527V12.5253C24.9492 12.7931 24.9796 12.9696 24.9857 13H24.3285C24.3224 12.9817 24.2981 12.86 24.2981 12.6227C24.1581 12.8479 23.866 13.0913 23.3853 13.0913C22.7646 13.0913 22.3812 12.6653 22.3812 12.1967ZM23.5192 12.5375C23.9147 12.5375 24.2555 12.3489 24.2555 11.7708V11.6369L23.4826 11.7525C23.2636 11.789 23.0871 11.9107 23.0871 12.1541C23.0871 12.355 23.2392 12.5375 23.5192 12.5375ZM26.5023 13H25.8025V10.0365H26.478V10.4138C26.6484 10.1095 27.0196 9.95127 27.3543 9.95127C27.7437 9.95127 28.0845 10.1277 28.2427 10.4746C28.474 10.0851 28.8208 9.95127 29.2042 9.95127C29.7397 9.95127 30.2509 10.292 30.2509 11.077V13H29.5693V11.1927C29.5693 10.8458 29.3928 10.5841 28.9973 10.5841C28.6261 10.5841 28.3827 10.8762 28.3827 11.2414V13H27.689V11.1927C27.689 10.8519 27.5186 10.5841 27.1169 10.5841C26.7397 10.5841 26.5023 10.8641 26.5023 11.2414V13ZM31.6082 11.1927H33.0626C33.0504 10.8458 32.8192 10.5355 32.3323 10.5355C31.8881 10.5355 31.6325 10.8762 31.6082 11.1927ZM33.1417 11.9655L33.738 12.1541C33.5798 12.6714 33.1112 13.0913 32.3993 13.0913C31.596 13.0913 30.884 12.5071 30.884 11.503C30.884 10.5659 31.5778 9.94518 32.3262 9.94518C33.239 9.94518 33.7745 10.5476 33.7745 11.4848C33.7745 11.6004 33.7624 11.6977 33.7563 11.7099H31.5899C31.6082 12.1602 31.9611 12.4828 32.3993 12.4828C32.8252 12.4828 33.0443 12.2576 33.1417 11.9655Z" fill="#343C6A"/>
<path d="M9.55455 67L9.14684 65.9168H7.32125L6.91962 67H6.14679L7.82633 62.6855H8.67219L10.3517 67H9.55455ZM8.23405 63.4766L7.57683 65.2414H8.89126L8.23405 63.4766ZM11.2838 65.5091C11.2838 66.075 11.6003 66.4523 12.081 66.4523C12.5435 66.4523 12.866 66.069 12.866 65.503C12.866 64.9371 12.5496 64.5841 12.0871 64.5841C11.6246 64.5841 11.2838 64.9432 11.2838 65.5091ZM13.5476 62.5942V66.4584C13.5476 66.7262 13.5719 66.9513 13.578 67H12.9025C12.8903 66.9331 12.8721 66.7383 12.8721 66.6166C12.7321 66.8661 12.4218 67.073 12.0019 67.073C11.1499 67.073 10.5779 66.4036 10.5779 65.5091C10.5779 64.6572 11.156 63.9574 11.9897 63.9574C12.507 63.9574 12.7686 64.1947 12.8599 64.3833V62.5942H13.5476ZM14.9445 65.5091C14.9445 66.075 15.2609 66.4523 15.7417 66.4523C16.2042 66.4523 16.5267 66.069 16.5267 65.503C16.5267 64.9371 16.2102 64.5841 15.7478 64.5841C15.2853 64.5841 14.9445 64.9432 14.9445 65.5091ZM17.2082 62.5942V66.4584C17.2082 66.7262 17.2326 66.9513 17.2387 67H16.5632C16.551 66.9331 16.5328 66.7383 16.5328 66.6166C16.3928 66.8661 16.0825 67.073 15.6626 67.073C14.8106 67.073 14.2386 66.4036 14.2386 65.5091C14.2386 64.6572 14.8167 63.9574 15.6504 63.9574C16.1677 63.9574 16.4293 64.1947 16.5206 64.3833V62.5942H17.2082ZM19.8648 64.0182V64.7363C19.7857 64.7241 19.7066 64.718 19.6336 64.718C19.0859 64.718 18.8364 65.0345 18.8364 65.5882V67H18.1305V64.0365H18.8182V64.5111C18.9581 64.1886 19.2867 64 19.6762 64C19.7614 64 19.8344 64.0121 19.8648 64.0182ZM20.9173 65.1927H22.3717C22.3595 64.8458 22.1283 64.5355 21.6415 64.5355C21.1972 64.5355 20.9417 64.8762 20.9173 65.1927ZM22.4508 65.9655L23.0472 66.1541C22.889 66.6714 22.4204 67.0913 21.7084 67.0913C20.9051 67.0913 20.1932 66.5071 20.1932 65.503C20.1932 64.5659 20.8869 63.9452 21.6354 63.9452C22.5482 63.9452 23.0837 64.5476 23.0837 65.4848C23.0837 65.6004 23.0715 65.6977 23.0654 65.7099H20.8991C20.9173 66.1602 21.2703 66.4828 21.7084 66.4828C22.1344 66.4828 22.3534 66.2576 22.4508 65.9655ZM23.4966 66.1967L24.1112 66.0264C24.1355 66.2941 24.3363 66.5314 24.7136 66.5314C25.0057 66.5314 25.1579 66.3732 25.1579 66.1907C25.1579 66.0324 25.0483 65.9107 24.811 65.8621L24.3729 65.7647C23.8495 65.6491 23.5757 65.3083 23.5757 64.9006C23.5757 64.3833 24.0503 63.9452 24.665 63.9452C25.4926 63.9452 25.7603 64.4807 25.809 64.7728L25.2126 64.9432C25.1883 64.7728 25.0605 64.4989 24.665 64.4989C24.4155 64.4989 24.239 64.6572 24.239 64.8397C24.239 64.9979 24.3546 65.1136 24.5372 65.1501L24.9875 65.2414C25.5473 65.3631 25.8394 65.7038 25.8394 66.142C25.8394 66.5923 25.4743 67.0913 24.7197 67.0913C23.8617 67.0913 23.5331 66.5314 23.4966 66.1967ZM26.2777 66.1967L26.8924 66.0264C26.9167 66.2941 27.1175 66.5314 27.4948 66.5314C27.7869 66.5314 27.939 66.3732 27.939 66.1907C27.939 66.0324 27.8295 65.9107 27.5922 65.8621L27.154 65.7647C26.6307 65.6491 26.3569 65.3083 26.3569 64.9006C26.3569 64.3833 26.8315 63.9452 27.4461 63.9452C28.2737 63.9452 28.5415 64.4807 28.5902 64.7728L27.9938 64.9432C27.9695 64.7728 27.8417 64.4989 27.4461 64.4989C27.1966 64.4989 27.0202 64.6572 27.0202 64.8397C27.0202 64.9979 27.1358 65.1136 27.3183 65.1501L27.7686 65.2414C28.3285 65.3631 28.6206 65.7038 28.6206 66.142C28.6206 66.5923 28.2555 67.0913 27.5009 67.0913C26.6429 67.0913 26.3143 66.5314 26.2777 66.1967Z" fill="#343C6A"/>
<rect x="61.2969" y="16.6699" width="50.2024" height="9.69941" rx="1.8" fill="#E3E5F5"/>
</svg>
