 <svg viewBox="0 0 40 40" width="40" height="40" fill="none" xmlns="http://www.w3.org/2000/svg"><circle cx="20" cy="20" r="20" fill="#FF6100"></circle><rect x="11" y="9" width="18.571" height="22.857" rx="3.025" fill="#fff"></rect><path d="M14.94 16.488c0-.653.53-1.183 1.183-1.183h8.67a1.182 1.182 0 010 2.365h-8.67c-.653 0-1.182-.53-1.182-1.183z" fill="#09F"></path><path d="M14.94 20.428c0-.653.53-1.182 1.183-1.182h8.67a1.182 1.182 0 110 2.365h-8.67c-.653 0-1.182-.53-1.182-1.183z" fill="#FF6100"></path><path d="M14.94 24.37c0-.654.53-1.183 1.183-1.183h8.67a1.182 1.182 0 110 2.364h-8.67c-.653 0-1.182-.529-1.182-1.182z" fill="#FFB629"></path></svg>