 <svg width="40" height="40" viewBox="0 0 40 40" fill="none" xmlns="http://www.w3.org/2000/svg">
    <circle cx="20" cy="20" r="20" fill="#3E62C8"/>
    <path d="M13.7512 31.8571H26.8193C28.3387 31.8571 29.5705 30.5606 29.5705 28.9611V14.4666L24.2367 9H13.7512C12.2317 9 11 10.2966 11 11.896V28.9611C11 30.5606 12.2317 31.8571 13.7512 31.8571Z" fill="white"/>
    <path d="M24.2817 9L29.5714 14.4022H26.5712C25.3068 14.4022 24.2817 13.3771 24.2817 12.1127V9Z" fill="#B1C3E9"/>
    <path d="M14.5713 16.4875C14.5713 15.8346 15.1006 15.3052 15.7536 15.3052H24.4235C25.0765 15.3052 25.6058 15.8346 25.6058 16.4875C25.6058 17.1405 25.0765 17.6698 24.4235 17.6698H15.7536C15.1006 17.6698 14.5713 17.1405 14.5713 16.4875Z" fill="#0099FF"/>
    <path d="M14.5713 20.4284C14.5713 19.7754 15.1006 19.2461 15.7536 19.2461H24.4235C25.0765 19.2461 25.6058 19.7754 25.6058 20.4284C25.6058 21.0813 25.0765 21.6106 24.4235 21.6106H15.7536C15.1006 21.6106 14.5713 21.0813 14.5713 20.4284Z" fill="#FF6100"/>
    <path d="M14.5713 24.3693C14.5713 23.7163 15.1006 23.187 15.7536 23.187H24.4235C25.0765 23.187 25.6058 23.7163 25.6058 24.3693C25.6058 25.0222 25.0765 25.5515 24.4235 25.5515H15.7536C15.1006 25.5515 14.5713 25.0222 14.5713 24.3693Z" fill="#FFB629"/>
</svg>