<svg width="40" height="40" viewBox="0 0 40 40" fill="none" xmlns="http://www.w3.org/2000/svg">
    <circle cx="20" cy="20" r="20" fill="#344067"/>
    <path d="M11 11.2321C11 9.99936 12.0208 9 13.28 9H27.2914C28.5506 9 29.5714 9.99936 29.5714 11.2321V29.625C29.5714 30.8578 28.5506 31.8571 27.2914 31.8571H13.28C12.0208 31.8571 11 30.8578 11 29.625V11.2321Z" fill="white"/>
    <path d="M13.8545 15.0388C13.8545 14.6057 14.2056 14.2546 14.6388 14.2546H16.2073C16.6404 14.2546 16.9916 14.6057 16.9916 15.0388V26.8028H13.8545V15.0388Z" fill="#0099FF"/>
    <path d="M18.6699 18.568C18.6699 18.1349 19.021 17.7838 19.4542 17.7838H21.0227C21.4559 17.7838 21.807 18.1349 21.807 18.568V26.8028H18.6699V18.568Z" fill="#FF6100"/>
    <path d="M23.4858 15.431C23.4858 14.9978 23.837 14.6467 24.2701 14.6467H25.8386C26.2718 14.6467 26.6229 14.9978 26.6229 15.431V26.8028H23.4858V15.431Z" fill="#FFB629"/>
</svg>